<svg width="75" height="52" viewBox="0 0 75 52" fill="none" xmlns="http://www.w3.org/2000/svg">
<path d="M68.0946 0H6.90539C3.09793 0 0 3.09793 0 6.90539V44.5691C0 48.3766 3.09793 51.4745 6.90539 51.4745H68.0946C71.9021 51.4745 75 48.3766 75 44.5691V6.90539C75 3.09764 71.9021 0 68.0946 0ZM70.6841 44.5691C70.6841 45.9968 69.5226 47.1586 68.0946 47.1586H6.90539C5.47741 47.1586 4.31587 45.9968 4.31587 44.5691V6.90539C4.31587 5.4777 5.47741 4.31587 6.90539 4.31587H68.0946C69.5226 4.31587 70.6841 5.4777 70.6841 6.90539V44.5691Z" fill="white"/>
<path d="M62.16 12.3207H42.3263C41.3728 12.3207 40.6 13.0938 40.6 14.047C40.6 15.0002 41.3728 15.7734 42.3263 15.7734H62.16C63.1136 15.7734 63.8864 15.0002 63.8864 14.047C63.8864 13.0938 63.1136 12.3207 62.16 12.3207Z" fill="white"/>
<path d="M62.16 35.7011H42.3263C41.3728 35.7011 40.6 36.474 40.6 37.4275C40.6 38.3807 41.3728 39.1538 42.3263 39.1538H62.16C63.1136 39.1538 63.8864 38.3807 63.8864 37.4275C63.8864 36.474 63.1136 35.7011 62.16 35.7011Z" fill="white"/>
<path d="M62.1601 22.307H50.1568C49.2035 22.307 48.4304 23.0801 48.4304 24.0333C48.4304 24.9866 49.2035 25.7597 50.1568 25.7597H62.1601C63.1136 25.7597 63.8864 24.9866 63.8864 24.0333C63.8864 23.0801 63.1136 22.307 62.1601 22.307Z" fill="white"/>
<path d="M62.1601 29.0038H50.1568C49.2035 29.0038 48.4304 29.7769 48.4304 30.7301C48.4304 31.6837 49.2035 32.4565 50.1568 32.4565H62.1601C63.1136 32.4565 63.8864 31.6837 63.8864 30.7301C63.8864 29.7769 63.1136 29.0038 62.1601 29.0038Z" fill="white"/>
<path d="M24.5303 12.3207C17.1326 12.3207 11.114 18.339 11.114 25.737C11.114 33.1349 17.1326 39.1539 24.5303 39.1539C25.4835 39.1539 26.2566 38.3807 26.2566 37.4275C26.2566 36.474 25.4835 35.7012 24.5303 35.7012C19.0362 35.7012 14.5666 31.2314 14.5666 25.737C14.5666 20.2432 19.0362 15.7734 24.5303 15.7734C30.0244 15.7734 34.4939 20.2432 34.4939 25.737V28.6603C34.4939 29.3197 33.9573 29.856 33.2975 29.856C32.6381 29.856 32.1014 29.3197 32.1014 28.6603V25.737C32.1014 21.5621 28.7051 18.1658 24.5306 18.1658C20.3557 18.1658 16.9594 21.5624 16.9594 25.737C16.9594 29.9121 20.356 33.3087 24.5306 33.3087C26.4549 33.3087 28.2128 32.586 29.5496 31.3988C30.3961 32.554 31.7588 33.3087 33.2975 33.3087C35.8611 33.3087 37.9466 31.2236 37.9466 28.6603V25.737C37.9466 18.3393 31.9279 12.3207 24.5303 12.3207ZM24.5303 29.856C22.2593 29.856 20.4118 28.0083 20.4118 25.737C20.4118 23.466 22.2595 21.6185 24.5303 21.6185C26.8013 21.6185 28.6485 23.466 28.6485 25.737C28.6485 28.0083 26.801 29.856 24.5303 29.856Z" fill="white"/>
</svg>
