<svg width="65" height="45" viewBox="0 0 65 45" fill="none" xmlns="http://www.w3.org/2000/svg">
<path d="M53.5513 8.59413L32.5023 27.1425L11.4487 8.59386C10.6104 7.85531 9.33253 7.93647 8.59426 8.77425C7.85625 9.61229 7.9366 10.8901 8.77491 11.6287L31.1657 31.3554C31.5477 31.6919 32.0253 31.8601 32.5025 31.8601C32.9798 31.8601 33.4576 31.6919 33.8397 31.3551L56.2258 11.6284C57.0636 10.8901 57.1442 9.61202 56.406 8.77398C55.6672 7.93674 54.3896 7.85585 53.5513 8.59413Z" fill="white"/>
<path d="M58.9331 0H6.06693C2.72176 0 0 2.72149 0 6.06693V38.1548C0 41.5002 2.72176 44.2217 6.06693 44.2217H58.9331C62.2782 44.2217 65 41.5002 65 38.1548V6.06693C65 2.72176 62.2782 0 58.9331 0ZM60.9554 38.1548C60.9554 39.2698 60.0483 40.1771 58.9331 40.1771H6.06693C4.95169 40.1771 4.04462 39.2698 4.04462 38.1548V6.06693C4.04462 4.95196 4.95169 4.04462 6.06693 4.04462H58.9331C60.0483 4.04462 60.9554 4.95196 60.9554 6.06693V38.1548Z" fill="white"/>
</svg>
