<svg width="65" height="73" viewBox="0 0 65 73" fill="none" xmlns="http://www.w3.org/2000/svg">
<path d="M62.5099 0H8.10533C6.72999 0 5.61557 1.11475 5.61557 2.48976V16.847H2.48976C1.11442 16.847 0 17.9618 0 19.3368C0 20.7118 1.11442 21.8266 2.48976 21.8266H5.61557V33.6944H2.48976C1.11442 33.6944 0 34.8092 0 36.1842C0 37.5592 1.11442 38.6739 2.48976 38.6739H5.61557V50.5415H2.48976C1.11442 50.5415 0 51.6562 0 53.0312C0 54.4062 1.11442 55.521 2.48976 55.521H5.61557V69.8783C5.61557 71.2533 6.72999 72.368 8.10533 72.368H62.5102C63.8856 72.368 65 71.2533 65 69.8783V2.48976C64.9997 1.11475 63.8853 0 62.5099 0ZM60.0201 67.3885H10.5951V55.521H13.7209C15.0962 55.521 16.2107 54.4062 16.2107 53.0312C16.2107 51.6562 15.0962 50.5415 13.7209 50.5415H10.5951V38.6739H13.7209C15.0962 38.6739 16.2107 37.5592 16.2107 36.1842C16.2107 34.8092 15.0962 33.6944 13.7209 33.6944H10.5951V21.8266H13.7209C15.0962 21.8266 16.2107 20.7118 16.2107 19.3368C16.2107 17.9618 15.0962 16.847 13.7209 16.847H10.5951V4.97952H60.0205V67.3885H60.0201Z" fill="white"/>
<path d="M37.0888 37.3288C42.7336 37.3288 47.326 32.7347 47.326 27.0879C47.326 21.4408 42.7336 16.8467 37.0888 16.8467C31.4423 16.8467 26.8486 21.4408 26.8486 27.0879C26.8486 32.7347 31.4423 37.3288 37.0888 37.3288ZM37.0888 21.8265C39.9879 21.8265 42.3465 24.1868 42.3465 27.0882C42.3465 29.9893 39.9882 32.3496 37.0888 32.3496C34.1881 32.3496 31.8281 29.9893 31.8281 27.0882C31.8281 24.1868 34.1881 21.8265 37.0888 21.8265Z" fill="white"/>
<path d="M25.6897 55.9498C27.065 55.9498 28.1794 54.8351 28.1794 53.4601V49.1574C28.1794 46.3958 30.4268 44.1487 33.1888 44.1487H41.0505C43.8124 44.1487 46.0599 46.3955 46.0599 49.1574V53.4601C46.0599 54.8351 47.1743 55.9498 48.5496 55.9498C49.9246 55.9498 51.0394 54.8351 51.0394 53.4601V49.1574C51.0394 43.6501 46.5585 39.1692 41.0505 39.1692H33.1888C27.6808 39.1692 23.1999 43.6498 23.1999 49.1574V53.4601C23.1999 54.8351 24.3146 55.9498 25.6897 55.9498Z" fill="white"/>
</svg>
