<svg width="65" height="62" viewBox="0 0 65 62" fill="none" xmlns="http://www.w3.org/2000/svg">
<path d="M59.3462 0H5.64986C2.53444 0 0 2.53472 0 5.65014V45.8645C0 48.9819 2.53444 51.5183 5.64986 51.5183H23.1838V57.6052H16.4338C15.265 57.6052 14.3175 58.5527 14.3175 59.7215C14.3175 60.8902 15.265 61.8377 16.4338 61.8377H25.3001H39.6935H48.5626C49.7316 61.8377 50.6788 60.8902 50.6788 59.7215C50.6788 58.5527 49.7316 57.6052 48.5626 57.6052H41.8097V51.5183H59.3462C62.4639 51.5183 65 48.9822 65 45.8645V5.65014C65 2.53472 62.4639 0 59.3462 0ZM4.23252 12.8454H60.7675V38.6698H4.23252V12.8454ZM5.64986 4.23252H59.3462C60.1298 4.23252 60.7675 4.86853 60.7675 5.65014V8.61319H4.23252V5.65014C4.23252 4.86853 4.86825 4.23252 5.64986 4.23252ZM37.5772 57.6049H27.4163V51.518H37.5772V57.6049ZM59.3462 47.2855H39.6935H25.3001H5.64986C4.86825 47.2855 4.23252 46.6481 4.23252 45.8642V42.9026H60.7675V45.8645C60.7675 46.6481 60.1298 47.2855 59.3462 47.2855Z" fill="white"/>
</svg>
