<svg width="35" height="34" viewBox="0 0 35 34" fill="none" xmlns="http://www.w3.org/2000/svg">
<path id="path" d="M8.39251 3.88189C8.39251 6.03397 6.77375 7.75908 4.17123 7.75908H4.12275C1.61719 7.76065 0 6.03241 0 3.88189C0 1.67819 1.6688 1.09129e-06 4.21971 1.09129e-06C6.77375 -0.00156292 8.34559 1.67819 8.39251 3.88189ZM0.437924 33.2744H7.90141V10.8261H0.437924V33.2744ZM26.2192 10.3006C22.2606 10.3006 20.4886 12.4746 19.4923 14.0073V14.0793H19.4438C19.4626 14.0574 19.4798 14.0323 19.4923 14.0073V10.8277H12.0304C12.1274 12.9313 12.0304 33.276 12.0304 33.276H19.4923V20.7389C19.4923 20.0632 19.5377 19.4016 19.7379 18.9183C20.279 17.5827 21.5083 16.186 23.5635 16.186C26.2676 16.186 27.3484 18.2489 27.3484 21.2644V33.276H34.8103V20.4057C34.8119 13.5053 31.127 10.3006 26.2192 10.3006Z" fill="black"/>
</svg>
